<svg xmlns="http://www.w3.org/2000/svg" version="1.0" width="256px" height="256px" viewBox="0 0 58.000000 67.000000" preserveAspectRatio="xMidYMid meet">
    <metadata>Akutangulo diseño y creación de páginas web, posicionamiento SEO y fotógrafo oficial de google maps street view trusted en valladolid. Oscar Navarro. </metadata>
           <g transform="translate(0.000000,65.000000) scale(0.100000,-0.100000)" fill="#9300D3" stroke="none">
           <path class="animacion-logo-svg" d="M175 551 c-112 -52 -169 -207 -120 -329 19 -45 86 -112 172 -169 51 -35 52 -35 77 -16 24 17 25 22 26 125 l0 106 -38 -5 c-51 -7 -77 21 -68 72 8 42 41 60 80 45 40 -15 46 -40 46 -182 l0 -133 90 9 90 10 0 156 c0 147 -1 159 -25 207 -26 51 -72 91 -128 112 -46 18 -157 13 -202 -8z"/>
           </g>
</svg>  